<svg id="mm__logo" viewBox="0 0 30 30" xmlns="http://www.w3.org/2000/svg">
  <defs></defs>
  <circle fill="red" cx="15" cy="15" r="15"/>
  <g id="mm__logoMono">
    <path fill="black" fill-opacity=".3" d="M 16.5,5.7 16.3,19.2 l -8,3 c 0,2.1 2.1,4 4.8,4 4.3,-.6 4.8,-2.5 4.8,-6.5 v -8.4 c 1.4,.9 3,1.8 4.5,2.3 .2,0 .2,-.2 .3,-.5 v -3 c 0,-.3 0,-.4 -.3,-.5 -3,-.6 -3.6,-3.3 -6,-4 z"/>
    <path fill="white" d="M 15.2,4.7 V 17.7 c -.8,-.6 -2,-1 -3.2,-1 -2.6,0 -4.8,1.8 -4.8,4 0,2.2 2.2,4 4.8,4 a 5,5 0 0 0 4.2,-2 c .8,-1.3 .6,-3.2 .6,-4.4 V 9.9 C 18.1,10.8 19.6,11.4 21,12.1 c .4,.2 .6,0 .6,-.4 V 8.7 c 0,-.3 0,-.4 -.2,-.5 -2,-1 -4,-2.6 -5.6,-3.9 -.4,-0.2 -.6,0 -.6,.4 z"/>
  </g>
</svg>
