<svg viewBox="0 0 440 291" xmlns="http://www.w3.org/2000/svg">
  <defs></defs>
  <g>
    <circle r="142" cy="146" cx="222" fill="#160000" />
    <circle r="126" cy="146" cx="222" fill="#2b0000" />
    <circle r="110" cy="146" cx="222" fill="#550000" />
    <circle r="95"  cy="146" cx="222" fill="#800000" />
    <circle r="80"  cy="146" cx="222" fill="#aa0000" />
    <circle r="66"  cy="146" cx="222" fill="#d40000" />
    <circle r="52"  cy="146" cx="222" fill="#ff0000" />
  </g>
  <g>
    <path fill="#aa0000" d="m 234.3,131.5 c 5.4,3.3 11.7,6.5 16.7,8.8 1,0.2 1,-1.1 1,-2.1 V 127 c 0,-1 -0.2,-1.4 -1,-2 -7.77,-4 -20.5,-14 -20.5,-14 l -4.3,44.6 -27.4,16 c 0,9 10.2,14.3 17.8,14.3 7.6,0 12.4,-3 15.4,-7 3,-4 2.39,-12.6 2.33,-20 z"/>
    <path fill="#ffffff" d="m 231,156 v -29.7 c 5.7,3.2 11,6.7 16.4,9.1 1,0 1,-1.3 1,-2.4 v -11 c 0,-1 0,-1.5 -0.8,-2 -7.7,-4 -14,-8.8 -20.5,-13.8 -1.2,-0.8 -2,-0.3 -2,1.3 V 155 c -3.1,-2.3 -7,-3.5 -11.5,-3.5 -9.7,0 -17.7,6.3 -17.7,14.3 0.2,9 8,14.7 17.7,14.7 6.5,0 12.2,-3 15,-7.5 3,-5 2.5,-13 2.5,-17 z"/>
  </g>
</svg>
