<svg viewBox="0 0 32 32" xmlns="http://www.w3.org/2000/svg">
  <defs></defs>
  <g fill="none" fill-rule="evenodd">
    <path fill="#929292" d="M 22,24 V 18 H 11 v 7 0 l 2.5,-2 1.5,1 4,-3 z M 9,3 C 8,3 7,4 7,5 v 23 c 0,1 1,2 2,2 h 15 c 1,0 2,-1 2,-2 V 10 L 20,3 Z M 19,4 H 9 C 8.5,4 8,4.5 8,5 v 23 c 0,0.5 0.5,1 1,1 h 15 c 0.5,0 1,-0.5 1,-1 V 11 h -4 c -1,0 -2,-1 -2,-2 z m 1,0.5 V 9 c 0,0.5 0.5,1 1,1 h 4 z M 10,17 V 27 H 23 V 17 Z m 4,4 c 0.5,0 1,-0.5 1,-1 0,-0.5 -0.5,-1 -1,-1 -0.5,0 -1,0.5 -1,1 0,0.5 0.5,1 1,1 z"/>
  </g>
</svg>
