<svg xmlns="http://www.w3.org/2000/svg" aria-hidden="true">
  <symbol id="icon__x" viewBox="0 0 16 16">
    <path d="M4.65 4.65a.5.5 0 0 1 .7 0L8 7.29l2.65-2.64a.5.5 0 0 1 .7.7L8.71 8l2.64 2.65a.5.5 0 0 1-.7.7L8 8.71l-2.65 2.64a.5.5 0 0 1-.7-.7L7.29 8 4.65 5.35a.5.5 0 0 1 0-.7z"/>
  </symbol>
  <symbol id="icon__star" viewBox="0 0 16 16">
    <path d="M3.61 15.44c-.38.2-.82-.15-.74-.59l.83-4.73L.17 6.77c-.33-.32-.15-.9.29-.95l4.9-.7L7.53.79c.2-.39.73-.39.93 0l2.18 4.33 4.9.7c.44.06.6.63.28.94l-3.52 3.36.83 4.73c.07.44-.36.8-.75.6L8 13.18l-4.39 2.25z"/>
  </symbol>
  <symbol id="icon__gear" viewBox="0 0 16 16">
    <path d="M9.4 1.05C9-.35 7-.35 6.6 1.05l-.1.34a1.46 1.46 0 0 1-2.11.87l-.31-.17c-1.28-.7-2.7.7-2 2l.17.31c.45.82.02 1.84-.87 2.1l-.34.1c-1.4.42-1.4 2.4 0 2.82l.34.1a1.46 1.46 0 0 1 .87 2.1l-.17.31c-.7 1.28.7 2.7 2 2l.31-.17a1.46 1.46 0 0 1 2.1.87l.1.34c.42 1.4 2.4 1.4 2.81 0l.1-.34a1.46 1.46 0 0 1 2.11-.87l.31.17c1.28.7 2.7-.7 2-2l-.17-.31a1.46 1.46 0 0 1 .87-2.1l.34-.1c1.4-.42 1.4-2.4 0-2.81l-.34-.1a1.46 1.46 0 0 1-.87-2.11l.17-.31c.7-1.28-.7-2.7-2-2l-.31.17a1.46 1.46 0 0 1-2.1-.87l-.1-.34zM8 10.93a2.93 2.93 0 1 1 0-5.86 2.93 2.93 0 0 1 0 5.86z"/>
  </symbol>
  <symbol id="icon__wrench" viewBox="0 0 16 16">
    <path d="M.1 2.22A3 3 0 0 0 3.78 5.9l6.34 6.25A3 3 0 0 0 13 16a3 3 0 1 0-.85-5.88L5.9 3.78A3 3 0 0 0 2.22.1l2.14 2.14L4 4l-1.76.36L.1 2.22zm13.37 9.02.53.03.29.44.44.29.03.53.24.47-.24.47-.03.53-.44.29-.29.44-.53.03L13 15l-.47-.24-.53-.03-.29-.44-.44-.29-.03-.53L11 13l.24-.47.03-.53.44-.29.29-.44.53-.03L13 11l.47.24z"/>
  </symbol>
  <symbol id="icon__heart" viewBox="0 0 32 29.6">
    <path d="M23.6,0c-3.4,0-6.3,2.7-7.6,5.6C14.7,2.7,11.8,0,8.4,0C3.8,0,0,3.8,0,8.4c0,9.4,9.5,11.9,16,21.2c6.1-9.3,16-12.1,16-21.2C32,3.8,28.2,0,23.6,0z"/>
  </symbol>
  <symbol id="icon__play" viewBox="0 0 16 16">
    <path d="M8 15A7 7 0 1 1 8 1a7 7 0 0 1 0 14zm0 1A8 8 0 1 0 8 0a8 8 0 0 0 0 16z"/>
    <path d="M6.27 5.05a.5.5 0 0 1 .52.04l3.5 2.5a.5.5 0 0 1 0 .82l-3.5 2.5A.5.5 0 0 1 6 10.5v-5a.5.5 0 0 1 .27-.45z"/>
  </symbol>
  <symbol id="icon__image" viewBox="0 0 16 16">
    <path d="M6 5.5a1.5 1.5 0 1 1-3 0 1.5 1.5 0 0 1 3 0z"/>
    <path d="M2 1a2 2 0 0 0-2 2v10a2 2 0 0 0 2 2h12a2 2 0 0 0 2-2V3a2 2 0 0 0-2-2h-12zm12 1a1 1 0 0 1 1 1v6.5l-3.777-1.947a.5.5 0 0 0-.577.1l-3.71 3.71-2.66-1.77a.5.5 0 0 0-.63.1L1 12V3a1 1 0 0 1 1-1h12z"/>
  </symbol>
  <symbol id="icon__person" viewBox="0 0 16 16">
    <path d="M7.4 0a8 8 0 1 0 1.2 16A8 8 0 0 0 7.4 0zM8 1a7 7 0 0 1 5.5 11.3C12.7 11.2 11.2 10 8 10s-4.7 1.2-5.5 2.3A7 7 0 0 1 8 1Zm0 2C4 3 4 9 8 9s4-6 0-6Z"/>
  </symbol>
  <symbol id="icon__shield" viewBox="0 0 16 16">
    <path d="M8 14.93a8.82 8.82 0 0 0 3.57-2.9 12.1 12.1 0 0 0 2.26-9.2.48.48 0 0 0-.33-.38A30.44 30.44 0 0 0 8 1.07ZM8 0c2.07.2 3.8.79 5.82 1.43.56.19.96.68 1.04 1.26.6 4.48-.79 7.8-2.47 10C11.1 14.22 9.85 15.48 8 16c-1.8-.43-3.37-1.99-4.4-3.32A13.15 13.15 0 0 1 1.15 2.7c.08-.58.48-1.07 1.05-1.26A30.63 30.63 0 0 1 8 0Z"/>
  </symbol>
  <symbol id="icon__images" viewBox="0 0 16 16">
    <path d="M4 1a2 2 0 0 0-2 2 2 2 0 0 0-2 2v8a2 2 0 0 0 2 2h10a2 2 0 0 0 2-2 2 2 0 0 0 2-2V3a2 2 0 0 0-2-2H4zm0 1h10a1 1 0 0 1 1 1v8a1 1 0 0 1-1 1V5a2 2 0 0 0-2-2H3a1 1 0 0 1 1-1zM2 4h10a1 1 0 0 1 1 1v5.5l-1.8-2a.5.5 0 0 0-.6.1L7 12.4l-2.6-1.8a.5.5 0 0 0-.7 0L1 13V5a1 1 0 0 1 1-1zm2.5 2a1.5 1.5 0 0 0 0 3 1.5 1.5 0 0 0 0-3z"/>
  </symbol>
  <symbol id="icon__transl" viewBox="0 0 256 256">
    <path d="M242.7 210.6l-56-112a12 12 0 0 0-21.4 0l-20.5 41a84.2 84.2 0 0 1-38.8-13.4A107.3 107.3 0 0 0 131.3 68H152a12 12 0 0 0 0-24h-52V32a12 12 0 0 0-24 0v12H24a12 12 0 0 0 0 24h83.1A83.3 83.3 0 0 1 88 110.3A83.8 83.8 0 0 1 75.6 91a12 12 0 1 0-21.8 10A103.4 103.4 0 0 0 70 126.2A83.3 83.3 0 0 1 24 140a12 12 0 0 0 0 24a107 107 0 0 0 64-21.1a108.3 108.3 0 0 0 45.4 19.4l-24.1 48.3a12 12 0 1 0 21.4 10.8l12.7-25.4h65.2l12.7 25.4a12 12 0 0 0 21.4-10.8zM155.4 172l20.6-41.2l20.6 41.2z"/>
  </symbol>
</svg>
