<svg viewBox="0 0 410 60" xmlns="http://www.w3.org/2000/svg">
  <defs/>
  <g>
    <rect x="0" y="2.75" width="410" height="4" fill="#ffffff" fill-opacity=".2"/>
    <rect x="0" y="2.75" width="156" height="4" fill="#ff0000"/>
    <circle cx="156" cy="4.5" r="4.5" fill="#ff0000"/>
    <g fill="#e5e5e5">
      <rect x="17.8" y="22.5" width="5.8" height="19.5"/>
      <rect x="7.5"  y="22.5" width="5.8" height="19.5"/>
      <path id="next-video" d="m 45,24 v 17 l 14.5,-8.5 z m 16,0.2v 16.6 h 3.8 V 24.2 Z"/>
      <path id="volume-up"  d="m 85.7,29.55 v 7 h 4.66 L 96.2,42.4 V 23.7 l -5.83,5.8 z m 15.7,3.5 c 0,-2.1 -1.17,-3.85 -2.9,-4.66 v 9.32 c 1.75,-0.8 2.9,-2.6 2.9,-4.66 z M 98.5,22.8 v 2.45 c 3.4,1 5.8,4 5.8,7.8 0,3.7 -2.45,6.76 -5.83,7.8 v 2.45 c 4.66,-1 8.16,-5.24 8.16,-10.25 0,-5 -3.5,-9.2 -8.16,-10.25 z"/>
      <path id="settings"   d="m 353.73,33.26 c 0.1,-0.7 0.1,-1.3 0,-2 l 2.1,-1.7 c 0.2,-0.2 0.2,-0.4 0,-0.6 l -2,-3.44 c 0,0 -0.29439,-0.2 -0.6,0 l -2.45,1 c -0.5,-0.4 -1.1,-0.7 -1.7,-1 l -0.4,-2.55 c 0,-0.3 -0.2,-0.5 -0.4,-0.5 h -4 c -0.2,0 -0.5,0.2 -0.5,0.4 l -0.4,2.65 c -0.6,0.2 -1,0.6 -1.67,1 L 339.6,25.5 c -0.3,0 -0.5,0 -0.7,0.2 l -2,3.44 c 0,0 0,0.4 0.2,0.6 l 2,1.6 c 0,0.7 0,1.3 0,2 l -2,1.7 c -0.2,0.2 -0.2,0.4 0,0.6 l 2,3.44 c 0,0 0.3,0.2 0.6,0 l 2.45,-1 c 0.5,0.4 1.1,0.72 1.7,1 l 0.4,2.55 c 0,0.2 0.2,0.4 0.5,0.4 h 4 c 0.2,0 0.5,-0.2 0.5,-0.4 l 0.4,-2.55 c 0.6,-0.3 1.2,-0.6 1.7,-1 l 2.45,1 c 0.2,0 0.5,0 0.6,-0.2 l 2,-3.44 c 0,-0.2 0,-0.5 0,-0.6 z m -7.3,2.45 c -1.9,0 -3.44,-1.57 -3.44,-3.44 0,-1.9 1.6,-3.44 3.44,-3.44 1.9,0 3.44,1.6 3.44,3.44 0,1.9 -1.57032,3.44 -3.44,3.44 z"/>
      <path id="fullscreen" d="m 383.3,35.5 h -2.8 v 7 h 7 v -2.8 h -4.2 z m -2.8,-5.6 h 2.8 v -4.2 h 4.2 v -2.8 h -7 z m 16.7,9.8 h -4.2 v 2.8 H 400 v -7 h -2.8 z M 393,24 v 2.8 h 4.2 v 4.2 H 400 v -7 z"/>
    </g>
  </g>
</svg>
